%TF.GenerationSoftware,KiCad,Pcbnew,5.0.2+dfsg1-1*%
%TF.CreationDate,2021-03-05T16:55:40+01:00*%
%TF.ProjectId,XYgen,58596765-6e2e-46b6-9963-61645f706362,rev?*%
%TF.SameCoordinates,Original*%
%TF.FileFunction,Copper,L4,Bot*%
%TF.FilePolarity,Positive*%
%FSLAX46Y46*%
G04 Gerber Fmt 4.6, Leading zero omitted, Abs format (unit mm)*
G04 Created by KiCad (PCBNEW 5.0.2+dfsg1-1) date Fri 05 Mar 2021 04:55:40 PM CET*
%MOMM*%
%LPD*%
G01*
G04 APERTURE LIST*
%ADD10C,0.100000*%
%ADD11C,1.440000*%
%ADD12C,4.400000*%
%ADD13C,1.740000*%
%ADD14O,1.740000X2.200000*%
%ADD15C,1.000000*%
%ADD16R,2.000000X2.000000*%
%ADD17O,2.000000X2.000000*%
%ADD18C,0.800000*%
%ADD19C,0.500000*%
%ADD20C,0.250000*%
G04 APERTURE END LIST*
D10*
X100000000Y-35000000D02*
X100000000Y-135000000D01*
X200000000Y-35000000D02*
X100000000Y-35000000D01*
X200000000Y-135000000D02*
X200000000Y-35000000D01*
X100000000Y-135000000D02*
X200000000Y-135000000D01*
D11*
X147701000Y-91567000D03*
X145161000Y-91567000D03*
X142621000Y-91567000D03*
X170370500Y-114744500D03*
X170370500Y-117284500D03*
X170370500Y-119824500D03*
X136271000Y-91567000D03*
X133731000Y-91567000D03*
X131191000Y-91567000D03*
X160020000Y-125730000D03*
X160020000Y-123190000D03*
X160020000Y-120650000D03*
D12*
X104000000Y-131000000D03*
X195000000Y-130000000D03*
X195000000Y-40000000D03*
X105000000Y-40000000D03*
D10*
G36*
X116849505Y-38906204D02*
X116873773Y-38909804D01*
X116897572Y-38915765D01*
X116920671Y-38924030D01*
X116942850Y-38934520D01*
X116963893Y-38947132D01*
X116983599Y-38961747D01*
X117001777Y-38978223D01*
X117018253Y-38996401D01*
X117032868Y-39016107D01*
X117045480Y-39037150D01*
X117055970Y-39059329D01*
X117064235Y-39082428D01*
X117070196Y-39106227D01*
X117073796Y-39130495D01*
X117075000Y-39154999D01*
X117075000Y-40855001D01*
X117073796Y-40879505D01*
X117070196Y-40903773D01*
X117064235Y-40927572D01*
X117055970Y-40950671D01*
X117045480Y-40972850D01*
X117032868Y-40993893D01*
X117018253Y-41013599D01*
X117001777Y-41031777D01*
X116983599Y-41048253D01*
X116963893Y-41062868D01*
X116942850Y-41075480D01*
X116920671Y-41085970D01*
X116897572Y-41094235D01*
X116873773Y-41100196D01*
X116849505Y-41103796D01*
X116825001Y-41105000D01*
X115584999Y-41105000D01*
X115560495Y-41103796D01*
X115536227Y-41100196D01*
X115512428Y-41094235D01*
X115489329Y-41085970D01*
X115467150Y-41075480D01*
X115446107Y-41062868D01*
X115426401Y-41048253D01*
X115408223Y-41031777D01*
X115391747Y-41013599D01*
X115377132Y-40993893D01*
X115364520Y-40972850D01*
X115354030Y-40950671D01*
X115345765Y-40927572D01*
X115339804Y-40903773D01*
X115336204Y-40879505D01*
X115335000Y-40855001D01*
X115335000Y-39154999D01*
X115336204Y-39130495D01*
X115339804Y-39106227D01*
X115345765Y-39082428D01*
X115354030Y-39059329D01*
X115364520Y-39037150D01*
X115377132Y-39016107D01*
X115391747Y-38996401D01*
X115408223Y-38978223D01*
X115426401Y-38961747D01*
X115446107Y-38947132D01*
X115467150Y-38934520D01*
X115489329Y-38924030D01*
X115512428Y-38915765D01*
X115536227Y-38909804D01*
X115560495Y-38906204D01*
X115584999Y-38905000D01*
X116825001Y-38905000D01*
X116849505Y-38906204D01*
X116849505Y-38906204D01*
G37*
D13*
X116205000Y-40005000D03*
D14*
X113665000Y-40005000D03*
D10*
G36*
X173364505Y-128441204D02*
X173388773Y-128444804D01*
X173412572Y-128450765D01*
X173435671Y-128459030D01*
X173457850Y-128469520D01*
X173478893Y-128482132D01*
X173498599Y-128496747D01*
X173516777Y-128513223D01*
X173533253Y-128531401D01*
X173547868Y-128551107D01*
X173560480Y-128572150D01*
X173570970Y-128594329D01*
X173579235Y-128617428D01*
X173585196Y-128641227D01*
X173588796Y-128665495D01*
X173590000Y-128689999D01*
X173590000Y-130390001D01*
X173588796Y-130414505D01*
X173585196Y-130438773D01*
X173579235Y-130462572D01*
X173570970Y-130485671D01*
X173560480Y-130507850D01*
X173547868Y-130528893D01*
X173533253Y-130548599D01*
X173516777Y-130566777D01*
X173498599Y-130583253D01*
X173478893Y-130597868D01*
X173457850Y-130610480D01*
X173435671Y-130620970D01*
X173412572Y-130629235D01*
X173388773Y-130635196D01*
X173364505Y-130638796D01*
X173340001Y-130640000D01*
X172099999Y-130640000D01*
X172075495Y-130638796D01*
X172051227Y-130635196D01*
X172027428Y-130629235D01*
X172004329Y-130620970D01*
X171982150Y-130610480D01*
X171961107Y-130597868D01*
X171941401Y-130583253D01*
X171923223Y-130566777D01*
X171906747Y-130548599D01*
X171892132Y-130528893D01*
X171879520Y-130507850D01*
X171869030Y-130485671D01*
X171860765Y-130462572D01*
X171854804Y-130438773D01*
X171851204Y-130414505D01*
X171850000Y-130390001D01*
X171850000Y-128689999D01*
X171851204Y-128665495D01*
X171854804Y-128641227D01*
X171860765Y-128617428D01*
X171869030Y-128594329D01*
X171879520Y-128572150D01*
X171892132Y-128551107D01*
X171906747Y-128531401D01*
X171923223Y-128513223D01*
X171941401Y-128496747D01*
X171961107Y-128482132D01*
X171982150Y-128469520D01*
X172004329Y-128459030D01*
X172027428Y-128450765D01*
X172051227Y-128444804D01*
X172075495Y-128441204D01*
X172099999Y-128440000D01*
X173340001Y-128440000D01*
X173364505Y-128441204D01*
X173364505Y-128441204D01*
G37*
D13*
X172720000Y-129540000D03*
D14*
X175260000Y-129540000D03*
X177800000Y-129540000D03*
D15*
X108839000Y-123571000D03*
X108839000Y-121671000D03*
D16*
X142748000Y-64770000D03*
D17*
X142748000Y-67310000D03*
X168910000Y-39370000D03*
D16*
X166370000Y-39370000D03*
X180340000Y-39370000D03*
D17*
X182880000Y-39370000D03*
X104775000Y-95504000D03*
X104775000Y-98044000D03*
X104775000Y-100584000D03*
X104775000Y-103124000D03*
D16*
X104775000Y-105664000D03*
X104775000Y-72644000D03*
D17*
X104775000Y-70104000D03*
X104775000Y-67564000D03*
X104775000Y-65024000D03*
X104775000Y-62484000D03*
X104775000Y-45974000D03*
X104775000Y-48514000D03*
X104775000Y-51054000D03*
X104775000Y-53594000D03*
D16*
X104775000Y-56134000D03*
X104775000Y-89154000D03*
D17*
X104775000Y-86614000D03*
X104775000Y-84074000D03*
X104775000Y-81534000D03*
X104775000Y-78994000D03*
D18*
X155321000Y-115697000D03*
X153162000Y-120269000D03*
X185928000Y-122174000D03*
X183388000Y-126238000D03*
X178816000Y-96012000D03*
X180340000Y-93218000D03*
X158496000Y-102108000D03*
X171450000Y-98298000D03*
X153035000Y-84455000D03*
X158369000Y-78232000D03*
X187960000Y-71882000D03*
X170942000Y-68453000D03*
X168402000Y-95758000D03*
X171767500Y-92837000D03*
X171577000Y-122174000D03*
X156456536Y-69034005D03*
X166243000Y-76454000D03*
X164719000Y-111887000D03*
X191262000Y-115570000D03*
X193040000Y-112014000D03*
X183388000Y-112522000D03*
X184912000Y-103886000D03*
X194564000Y-85852000D03*
X168402000Y-97028000D03*
X171450000Y-90170000D03*
X178308000Y-81407000D03*
X186563000Y-79756000D03*
X178943000Y-111887000D03*
X160274000Y-109220000D03*
X164973000Y-110490000D03*
X179197000Y-110490000D03*
X178816000Y-97028000D03*
X178498500Y-90233500D03*
X178498500Y-63373000D03*
X110998000Y-83566000D03*
X109982000Y-77216000D03*
X125730000Y-108585000D03*
X118872002Y-108458000D03*
X140208000Y-108585000D03*
X136651998Y-108585000D03*
X110744000Y-75946000D03*
X112268000Y-83566000D03*
X125730000Y-109982000D03*
X121285000Y-109982000D03*
X112395000Y-87339000D03*
X121031000Y-96139000D03*
X122428000Y-94615000D03*
X121031000Y-93091000D03*
X121031000Y-63373000D03*
X122555000Y-61595000D03*
X121031000Y-59944000D03*
X112268000Y-53848000D03*
X108204000Y-126492000D03*
X109728000Y-128270000D03*
X117221000Y-121539000D03*
X116078000Y-123444000D03*
X113538000Y-111633000D03*
X111887000Y-110109000D03*
X110109000Y-111633000D03*
X120015000Y-115570000D03*
X120650000Y-114046000D03*
X129032000Y-123063000D03*
X129032000Y-119888000D03*
X129921000Y-80391000D03*
X133731000Y-80518000D03*
X121285000Y-70612000D03*
X120777000Y-67691000D03*
X132207000Y-62103000D03*
X130937000Y-67183000D03*
X146177000Y-120269000D03*
X143002000Y-113665000D03*
X135255000Y-112649000D03*
X132080000Y-128397000D03*
X141097000Y-130556000D03*
X146177000Y-115951000D03*
X128524000Y-95250000D03*
X127127000Y-96774000D03*
X132080000Y-100711000D03*
X136398000Y-99187000D03*
X129667000Y-105029000D03*
X136525000Y-105029000D03*
X143002000Y-98552000D03*
X138303000Y-98424996D03*
X166116000Y-118745000D03*
X155321000Y-121094500D03*
X164782500Y-108331000D03*
X179705000Y-120650000D03*
X197358000Y-116840000D03*
X197104000Y-112014000D03*
X183388000Y-124206000D03*
X186944000Y-105664000D03*
X193802000Y-104902000D03*
X193802000Y-102616000D03*
X197358000Y-105410000D03*
X188468000Y-96012000D03*
X188976000Y-94742000D03*
X195072000Y-94996000D03*
X198374000Y-90170000D03*
X164338000Y-94996000D03*
X152908000Y-101092000D03*
X171450000Y-93980000D03*
X159512000Y-92710000D03*
X159893000Y-85090000D03*
X171831000Y-88011000D03*
X162687000Y-90678000D03*
X161290000Y-80010000D03*
X160274000Y-75819000D03*
X171450000Y-84455000D03*
X171323000Y-83058000D03*
X165354000Y-113157000D03*
X184277000Y-81661000D03*
X196342000Y-76327000D03*
X184277000Y-83248500D03*
X157580489Y-61916265D03*
X171259500Y-61277500D03*
X159702500Y-72834500D03*
X173609000Y-66484500D03*
X132334000Y-94869000D03*
X136271000Y-94869000D03*
X120650000Y-125476000D03*
X136398000Y-121920000D03*
X159131000Y-110426500D03*
X161671000Y-57848500D03*
X159258000Y-114046000D03*
X183896000Y-116840000D03*
X161036000Y-101854000D03*
X155194000Y-107696000D03*
X151892000Y-114808000D03*
X193294000Y-119380000D03*
X162306000Y-101854000D03*
X118364000Y-96266000D03*
X118745000Y-63500000D03*
X110744000Y-115570000D03*
X127381000Y-80518000D03*
X124841000Y-74168000D03*
X126365000Y-68707000D03*
X125730000Y-123190000D03*
X135890000Y-126111000D03*
X140335000Y-122047000D03*
X146177000Y-118110000D03*
X129413000Y-99187000D03*
X134112000Y-100711000D03*
X132715000Y-106807000D03*
X113215840Y-91625840D03*
X115443000Y-86868000D03*
X114173000Y-64262000D03*
X114681000Y-59944001D03*
X117475000Y-86614000D03*
X119634000Y-97409002D03*
X113971776Y-90967845D03*
X114681000Y-85598000D03*
X116164000Y-66040000D03*
X117221000Y-63754000D03*
X116456995Y-91428675D03*
X116739153Y-96493847D03*
X133858000Y-67310000D03*
X163957000Y-93472000D03*
X162560000Y-84455000D03*
X193675000Y-91440000D03*
X193675000Y-81280000D03*
X198628000Y-98806000D03*
X190754000Y-98806000D03*
X116459000Y-57785000D03*
X131191000Y-76962000D03*
X116713000Y-68961000D03*
X126111000Y-77089000D03*
X115189000Y-92837000D03*
X118872000Y-84709000D03*
X126492000Y-116586000D03*
X131572000Y-107188000D03*
X121793000Y-118872000D03*
X121920000Y-117221000D03*
X132588000Y-129921000D03*
X129921000Y-129920998D03*
X133223000Y-123571000D03*
X122809000Y-120015000D03*
X124460000Y-113919000D03*
X137668000Y-63754000D03*
X128651000Y-63754000D03*
X132715000Y-118872000D03*
X122555000Y-114046000D03*
X122809000Y-118745000D03*
X127127000Y-118618002D03*
X133223000Y-121956990D03*
X129921000Y-70612000D03*
X129921000Y-67945000D03*
X120015000Y-122809000D03*
X123824998Y-123444000D03*
X133350000Y-107860000D03*
X131826000Y-111252000D03*
X125476000Y-111252000D03*
X121158000Y-111252000D03*
X136652000Y-84328000D03*
X152273000Y-82042000D03*
X137287000Y-128524000D03*
X154178000Y-89281000D03*
X164846000Y-124968000D03*
X139192000Y-132080000D03*
D19*
X187960000Y-71882000D02*
X184531000Y-68453000D01*
X184531000Y-68453000D02*
X170942000Y-68453000D01*
X178816000Y-96012000D02*
X168656000Y-96012000D01*
X168656000Y-96012000D02*
X168402000Y-95758000D01*
X180340000Y-93218000D02*
X172148500Y-93218000D01*
X172148500Y-93218000D02*
X171767500Y-92837000D01*
X185928000Y-122174000D02*
X171577000Y-122174000D01*
X164719000Y-111887000D02*
X178943000Y-111887000D01*
X164973000Y-110490000D02*
X179197000Y-110490000D01*
X168402000Y-97028000D02*
X178816000Y-97028000D01*
X171450000Y-90170000D02*
X178435000Y-90170000D01*
X178435000Y-90170000D02*
X178498500Y-90233500D01*
D20*
X110998000Y-83566000D02*
X109982000Y-82550000D01*
X109982000Y-82550000D02*
X109982000Y-77216000D01*
X125730000Y-108585000D02*
X118999002Y-108585000D01*
X118999002Y-108585000D02*
X118872002Y-108458000D01*
X140208000Y-108585000D02*
X136651998Y-108585000D01*
X110744000Y-75946000D02*
X110744000Y-82042000D01*
X110744000Y-82042000D02*
X112268000Y-83566000D01*
X125730000Y-109982000D02*
X121285000Y-109982000D01*
X132334000Y-94869000D02*
X136271000Y-94869000D01*
X135509000Y-122809000D02*
X136398000Y-121920000D01*
X132080000Y-122809000D02*
X135509000Y-122809000D01*
X120650000Y-125476000D02*
X129413000Y-125476000D01*
X129413000Y-125476000D02*
X132080000Y-122809000D01*
X161671000Y-58414185D02*
X161671000Y-57848500D01*
X157524501Y-63513184D02*
X161671000Y-59366685D01*
X159131000Y-110426500D02*
X159131000Y-107950000D01*
X159131000Y-107950000D02*
X163031001Y-104049999D01*
X163031001Y-104049999D02*
X163031001Y-92095003D01*
X163031001Y-92095003D02*
X157524501Y-86588503D01*
X157524501Y-86588503D02*
X157524501Y-63513184D01*
X161671000Y-59366685D02*
X161671000Y-58414185D01*
X159258000Y-114046000D02*
X161290000Y-116078000D01*
X161290000Y-116078000D02*
X183134000Y-116078000D01*
X183134000Y-116078000D02*
X183896000Y-116840000D01*
X161036000Y-101854000D02*
X155194000Y-107696000D01*
X158242000Y-114808000D02*
X160528000Y-117094000D01*
X160528000Y-117094000D02*
X167640000Y-117094000D01*
X167640000Y-117094000D02*
X169164000Y-118618000D01*
X169164000Y-118618000D02*
X174498000Y-118618000D01*
X174498000Y-118618000D02*
X175260000Y-119380000D01*
X175260000Y-119380000D02*
X193294000Y-119380000D01*
X151892000Y-114808000D02*
X157480000Y-114808000D01*
X157480000Y-114808000D02*
X158242000Y-114808000D01*
X157480000Y-113284000D02*
X157480000Y-114808000D01*
X162306000Y-101854000D02*
X157480000Y-106680000D01*
X157480000Y-106680000D02*
X157480000Y-113284000D01*
X105029000Y-89154000D02*
X110744000Y-89154000D01*
X112815841Y-91225841D02*
X113215840Y-91625840D01*
X110744000Y-89154000D02*
X112815841Y-91225841D01*
X105029000Y-57384000D02*
X105029000Y-56134000D01*
X109347000Y-61702000D02*
X105029000Y-57384000D01*
X109347000Y-66782000D02*
X109347000Y-61702000D01*
X120015000Y-77450000D02*
X109347000Y-66782000D01*
X119634000Y-97409002D02*
X120015000Y-97028002D01*
X120015000Y-97028002D02*
X120015000Y-77450000D01*
X105029000Y-72644000D02*
X105029000Y-73894000D01*
X105029000Y-73894000D02*
X108585000Y-77450000D01*
X113571777Y-90567846D02*
X113971776Y-90967845D01*
X108585000Y-85581069D02*
X113571777Y-90567846D01*
X108585000Y-77450000D02*
X108585000Y-85581069D01*
X107569000Y-105664000D02*
X116739153Y-96493847D01*
X107569000Y-105664000D02*
X105029000Y-105664000D01*
X140462000Y-67310000D02*
X142748000Y-67310000D01*
X140462000Y-67310000D02*
X133858000Y-67310000D01*
X140970000Y-67310000D02*
X140462000Y-67310000D01*
X163957000Y-93472000D02*
X163957000Y-85852000D01*
X163957000Y-85852000D02*
X162560000Y-84455000D01*
X193675000Y-91440000D02*
X193675000Y-81280000D01*
X198628000Y-98806000D02*
X190754000Y-98806000D01*
X116459000Y-60140998D02*
X122174000Y-65855998D01*
X116459000Y-57785000D02*
X116459000Y-60140998D01*
X122174000Y-65855998D02*
X122174000Y-73533000D01*
X122174000Y-73533000D02*
X124714000Y-76073000D01*
X124714000Y-76073000D02*
X130302000Y-76073000D01*
X130302000Y-76073000D02*
X131191000Y-76962000D01*
X117112999Y-69360999D02*
X117112999Y-70884999D01*
X116713000Y-68961000D02*
X117112999Y-69360999D01*
X117112999Y-70884999D02*
X123317000Y-77089000D01*
X123317000Y-77089000D02*
X126111000Y-77089000D01*
X118872000Y-90086672D02*
X118872000Y-84709000D01*
X115189000Y-92837000D02*
X116121672Y-92837000D01*
X116121672Y-92837000D02*
X118872000Y-90086672D01*
X126492000Y-116586000D02*
X126492000Y-112268000D01*
X126492000Y-112268000D02*
X131572000Y-107188000D01*
X121793000Y-118872000D02*
X121793000Y-117348000D01*
X121793000Y-117348000D02*
X121920000Y-117221000D01*
X129921002Y-129921000D02*
X129921000Y-129920998D01*
X133223000Y-123571000D02*
X132657315Y-123571000D01*
X132657315Y-123571000D02*
X130810000Y-125418315D01*
X132587998Y-129920998D02*
X132588000Y-129921000D01*
X130810000Y-125418315D02*
X130810000Y-129920998D01*
X129921000Y-129920998D02*
X130810000Y-129920998D01*
X130810000Y-129920998D02*
X132587998Y-129920998D01*
X122809000Y-120015000D02*
X124460000Y-118364000D01*
X137668000Y-63754000D02*
X128651000Y-63754000D01*
X131445000Y-117602000D02*
X132715000Y-118872000D01*
X124460000Y-117602000D02*
X131445000Y-117602000D01*
X124460000Y-117602000D02*
X124460000Y-113919000D01*
X124460000Y-118364000D02*
X124460000Y-117602000D01*
X122809000Y-114865685D02*
X122809000Y-118745000D01*
X122555000Y-114046000D02*
X122555000Y-114611685D01*
X122555000Y-114611685D02*
X122809000Y-114865685D01*
X127127000Y-118618002D02*
X129884012Y-118618002D01*
X132823001Y-121556991D02*
X133223000Y-121956990D01*
X129884012Y-118618002D02*
X132823001Y-121556991D01*
X129921000Y-70612000D02*
X129921000Y-67945000D01*
X120015000Y-122809000D02*
X120650000Y-123444000D01*
X123259313Y-123444000D02*
X123824998Y-123444000D01*
X120650000Y-123444000D02*
X123259313Y-123444000D01*
X133350000Y-107860000D02*
X133350000Y-109728000D01*
X133350000Y-109728000D02*
X131826000Y-111252000D01*
X125476000Y-111252000D02*
X121158000Y-111252000D01*
X136652000Y-84328000D02*
X138430000Y-82550000D01*
X138430000Y-82550000D02*
X151765000Y-82550000D01*
X151765000Y-82550000D02*
X152273000Y-82042000D01*
X137287000Y-128524000D02*
X139573000Y-126238000D01*
X139573000Y-126238000D02*
X144526000Y-126238000D01*
X144526000Y-126238000D02*
X149098000Y-121666000D01*
X149098000Y-121666000D02*
X149098000Y-101346000D01*
X149098000Y-101346000D02*
X152400000Y-98044000D01*
X152400000Y-98044000D02*
X152400000Y-91059000D01*
X152400000Y-91059000D02*
X154178000Y-89281000D01*
X164846000Y-124968000D02*
X160528000Y-129286000D01*
X160528000Y-129286000D02*
X156972000Y-132842000D01*
X156972000Y-132842000D02*
X139954000Y-132842000D01*
X139954000Y-132842000D02*
X139192000Y-132080000D01*
M02*
