%TF.GenerationSoftware,KiCad,Pcbnew,5.0.2+dfsg1-1*%
%TF.CreationDate,2021-03-05T16:55:40+01:00*%
%TF.ProjectId,XYgen,58596765-6e2e-46b6-9963-61645f706362,rev?*%
%TF.SameCoordinates,Original*%
%TF.FileFunction,Legend,Bot*%
%TF.FilePolarity,Positive*%
%FSLAX46Y46*%
G04 Gerber Fmt 4.6, Leading zero omitted, Abs format (unit mm)*
G04 Created by KiCad (PCBNEW 5.0.2+dfsg1-1) date Fri 05 Mar 2021 04:55:40 PM CET*
%MOMM*%
%LPD*%
G01*
G04 APERTURE LIST*
%ADD10C,0.450000*%
%ADD11C,0.100000*%
G04 APERTURE END LIST*
D10*
X167954761Y-48791857D02*
X167240476Y-49029952D01*
X167002380Y-49268047D01*
X166764285Y-49744238D01*
X166764285Y-50458523D01*
X167002380Y-50934714D01*
X167240476Y-51172809D01*
X167716666Y-51410904D01*
X169621428Y-51410904D01*
X169621428Y-46410904D01*
X167954761Y-46410904D01*
X167478571Y-46649000D01*
X167240476Y-46887095D01*
X167002380Y-47363285D01*
X167002380Y-47839476D01*
X167240476Y-48315666D01*
X167478571Y-48553761D01*
X167954761Y-48791857D01*
X169621428Y-48791857D01*
X163669047Y-46410904D02*
X162716666Y-46410904D01*
X162240476Y-46649000D01*
X161764285Y-47125190D01*
X161526190Y-48077571D01*
X161526190Y-49744238D01*
X161764285Y-50696619D01*
X162240476Y-51172809D01*
X162716666Y-51410904D01*
X163669047Y-51410904D01*
X164145238Y-51172809D01*
X164621428Y-50696619D01*
X164859523Y-49744238D01*
X164859523Y-48077571D01*
X164621428Y-47125190D01*
X164145238Y-46649000D01*
X163669047Y-46410904D01*
X160097619Y-46410904D02*
X157240476Y-46410904D01*
X158669047Y-51410904D02*
X158669047Y-46410904D01*
X156288095Y-46410904D02*
X153430952Y-46410904D01*
X154859523Y-51410904D02*
X154859523Y-46410904D01*
X150811904Y-46410904D02*
X149859523Y-46410904D01*
X149383333Y-46649000D01*
X148907142Y-47125190D01*
X148669047Y-48077571D01*
X148669047Y-49744238D01*
X148907142Y-50696619D01*
X149383333Y-51172809D01*
X149859523Y-51410904D01*
X150811904Y-51410904D01*
X151288095Y-51172809D01*
X151764285Y-50696619D01*
X152002380Y-49744238D01*
X152002380Y-48077571D01*
X151764285Y-47125190D01*
X151288095Y-46649000D01*
X150811904Y-46410904D01*
X146526190Y-51410904D02*
X146526190Y-46410904D01*
X144859523Y-49982333D01*
X143192857Y-46410904D01*
X143192857Y-51410904D01*
X137716666Y-46410904D02*
X134859523Y-46410904D01*
X136288095Y-51410904D02*
X136288095Y-46410904D01*
X133192857Y-48791857D02*
X131526190Y-48791857D01*
X130811904Y-51410904D02*
X133192857Y-51410904D01*
X133192857Y-46410904D01*
X130811904Y-46410904D01*
X129145238Y-46410904D02*
X125811904Y-51410904D01*
X125811904Y-46410904D02*
X129145238Y-51410904D01*
X124621428Y-46410904D02*
X121764285Y-46410904D01*
X123192857Y-51410904D02*
X123192857Y-46410904D01*
D11*
X100000000Y-35000000D02*
X100000000Y-135000000D01*
X200000000Y-35000000D02*
X100000000Y-35000000D01*
X200000000Y-135000000D02*
X200000000Y-35000000D01*
X100000000Y-135000000D02*
X200000000Y-135000000D01*
M02*
