M48
;DRILL file {KiCad 5.0.2+dfsg1-1} date Fri 05 Mar 2021 04:56:31 PM CET
;FORMAT={-:-/ absolute / inch / decimal}
FMAT,2
INCH,TZ
T1C0.0157
T2C0.0197
T3C0.0315
T4C0.0433
T5C0.0472
T6C0.0866
%
G90
G05
T1
X4.26Y-4.98
X4.32Y-5.05
X4.33Y-3.04
X4.335Y-4.395
X4.36Y-2.99
X4.36Y-4.55
X4.37Y-3.29
X4.405Y-4.335
X4.42Y-2.12
X4.42Y-3.29
X4.425Y-3.4385
X4.4573Y-3.6073
X4.47Y-4.395
X4.4871Y-3.5814
X4.495Y-2.53
X4.515Y-2.36
X4.515Y-3.37
X4.535Y-3.655
X4.545Y-3.42
X4.57Y-4.86
X4.5734Y-2.6
X4.5849Y-3.5996
X4.585Y-2.275
X4.595Y-2.715
X4.596Y-3.799
X4.615Y-2.51
X4.615Y-4.785
X4.625Y-3.41
X4.66Y-3.79
X4.675Y-2.5
X4.68Y-3.335
X4.68Y-4.27
X4.71Y-3.835
X4.725Y-4.55
X4.725Y-4.835
X4.75Y-4.49
X4.75Y-4.94
X4.755Y-2.665
X4.765Y-2.36
X4.765Y-2.495
X4.765Y-3.665
X4.765Y-3.785
X4.77Y-4.38
X4.775Y-2.78
X4.775Y-4.33
X4.795Y-4.68
X4.8Y-4.615
X4.82Y-3.725
X4.825Y-2.425
X4.825Y-4.49
X4.835Y-4.675
X4.835Y-4.725
X4.875Y-4.86
X4.9Y-4.485
X4.915Y-2.92
X4.94Y-4.38
X4.95Y-4.275
X4.95Y-4.33
X4.95Y-4.85
X4.965Y-3.035
X4.975Y-2.705
X4.98Y-4.59
X5.005Y-3.81
X5.005Y-4.67
X5.015Y-3.17
X5.06Y-3.75
X5.065Y-2.51
X5.08Y-4.72
X5.08Y-4.845
X5.095Y-3.905
X5.105Y-4.135
X5.115Y-2.675
X5.115Y-2.78
X5.115Y-3.165
X5.115Y-5.115
X5.155Y-2.645
X5.165Y-3.03
X5.18Y-4.22
X5.19Y-4.38
X5.2Y-3.965
X5.2Y-5.055
X5.205Y-2.445
X5.21Y-3.735
X5.22Y-5.115
X5.225Y-4.205
X5.225Y-4.68
X5.245Y-4.8015
X5.245Y-4.865
X5.25Y-4.2465
X5.265Y-3.17
X5.27Y-2.65
X5.28Y-3.965
X5.325Y-4.435
X5.35Y-4.965
X5.365Y-3.735
X5.37Y-3.905
X5.37Y-4.8
X5.375Y-4.135
X5.38Y-4.275
X5.38Y-3.32
X5.405Y-5.06
X5.42Y-2.51
X5.445Y-3.875
X5.48Y-5.2
X5.52Y-4.275
X5.525Y-4.805
X5.555Y-5.14
X5.63Y-3.88
X5.63Y-4.475
X5.755Y-4.565
X5.755Y-4.65
X5.755Y-4.735
X5.98Y-4.52
X5.995Y-3.23
X6.02Y-3.98
X6.025Y-3.325
X6.03Y-4.735
X6.07Y-3.515
X6.11Y-4.24
X6.115Y-4.555
X6.115Y-4.7675
X6.1597Y-2.7179
X6.204Y-2.4376
X6.235Y-3.08
X6.24Y-4.02
X6.265Y-4.3475
X6.27Y-4.49
X6.28Y-3.65
X6.2875Y-2.8675
X6.295Y-3.35
X6.31Y-2.985
X6.31Y-4.3
X6.34Y-4.01
X6.35Y-3.15
X6.365Y-2.2775
X6.39Y-4.01
X6.4Y-3.325
X6.405Y-3.57
X6.455Y-3.68
X6.47Y-3.74
X6.485Y-4.405
X6.4875Y-4.265
X6.49Y-4.92
X6.495Y-4.35
X6.51Y-4.455
X6.54Y-4.675
X6.545Y-3.01
X6.63Y-3.77
X6.63Y-3.82
X6.73Y-2.695
X6.7425Y-2.4125
X6.745Y-3.27
X6.75Y-3.325
X6.75Y-3.55
X6.75Y-3.7
X6.75Y-3.87
X6.755Y-4.81
X6.7625Y-3.655
X6.765Y-3.465
X6.835Y-2.6175
X7.02Y-3.205
X7.0275Y-2.495
X7.0275Y-3.5525
X7.04Y-3.78
X7.04Y-3.82
X7.045Y-4.405
X7.055Y-4.35
X7.075Y-4.75
X7.1Y-3.67
X7.22Y-4.43
X7.22Y-4.89
X7.22Y-4.97
X7.24Y-4.6
X7.255Y-3.215
X7.255Y-3.2775
X7.28Y-4.09
X7.32Y-4.81
X7.345Y-3.14
X7.36Y-4.16
X7.4Y-2.83
X7.42Y-3.78
X7.44Y-3.73
X7.51Y-3.89
X7.53Y-4.55
X7.6Y-4.41
X7.61Y-4.7
X7.625Y-3.2
X7.625Y-3.6
X7.63Y-4.04
X7.63Y-4.13
X7.66Y-3.38
X7.68Y-3.74
X7.73Y-3.005
X7.76Y-4.41
X7.77Y-4.15
X7.77Y-4.6
X7.81Y-3.55
X7.82Y-3.89
T2
X4.285Y-4.7902
X4.285Y-4.865
T3
X5.165Y-3.605
X5.265Y-3.605
X5.365Y-3.605
X6.3Y-4.75
X6.3Y-4.85
X6.3Y-4.95
X5.615Y-3.605
X5.715Y-3.605
X5.815Y-3.605
X6.7075Y-4.5175
X6.7075Y-4.6175
X6.7075Y-4.7175
T4
X4.125Y-2.46
X4.125Y-2.56
X4.125Y-2.66
X4.125Y-2.76
X4.125Y-2.86
X4.125Y-3.76
X4.125Y-3.86
X4.125Y-3.96
X4.125Y-4.06
X4.125Y-4.16
X4.125Y-3.11
X4.125Y-3.21
X4.125Y-3.31
X4.125Y-3.41
X4.125Y-3.51
X7.1Y-1.55
X7.2Y-1.55
X4.125Y-1.81
X4.125Y-1.91
X4.125Y-2.01
X4.125Y-2.11
X4.125Y-2.21
X5.62Y-2.55
X5.62Y-2.65
X6.55Y-1.55
X6.65Y-1.55
T5
X4.475Y-1.575
X4.575Y-1.575
X6.8Y-5.1
X6.9Y-5.1
X7.Y-5.1
T6
X4.0945Y-5.1575
X7.6772Y-5.1181
X7.6772Y-1.5748
X4.1339Y-1.5748
T0
M30
